<svg xmlns="http://www.w3.org/2000/svg" width="1200" height="610" viewBox="0 0 1200 610" role="img" aria-labelledby="title"><title id="title">E의 이해관계와 D에서 B를 거쳐 A로 이어지는 대여 구조</title><defs><marker id="arrow" markerWidth="10" markerHeight="10" refX="8" refY="4" orient="auto" markerUnits="userSpaceOnUse"><path d="M0 0 L8 4 L0 8Z" fill="#82AAFF"/></marker><marker id="gold" markerWidth="10" markerHeight="10" refX="8" refY="4" orient="auto" markerUnits="userSpaceOnUse"><path d="M0 0 L8 4 L0 8Z" fill="#FFD54F"/></marker></defs><style>text{font-family:'Apple SD Gothic Neo','Noto Sans KR',sans-serif;fill:#82AAFF;font-size:26px;font-weight:500}.title{font-size:29px;font-weight:700}.node{font-size:30px;font-weight:700}.sub{font-size:23px}.gold{fill:#FFD54F}</style><rect width="100%" height="100%" rx="16" fill="#141B2A"/><text x="35" y="48" text-anchor="start" class="title">회사 관계</text><text x="730" y="48" text-anchor="start" class="title">두 대여의 연결</text><rect x="25" y="72" width="650" height="510" rx="16" fill="#192337"/><rect x="702" y="72" width="473" height="510" rx="16" fill="#192337"/><rect x="75" y="280" width="145" height="80" rx="13" fill="#21304A" stroke="#82AAFF" stroke-width="1.7"/><text x="147.5" y="330.0" text-anchor="middle" class="node">E 개인</text><rect x="385" y="108" width="230" height="86" rx="13" fill="#21304A" stroke="#82AAFF" stroke-width="1.7"/><text x="500.0" y="149.0" text-anchor="middle" class="node">A 법인</text><text x="500.0" y="180.0" text-anchor="middle" class="sub">비상장</text><rect x="385" y="280" width="230" height="86" rx="13" fill="#21304A" stroke="#82AAFF" stroke-width="1.7"/><text x="500.0" y="321.0" text-anchor="middle" class="node">C 법인</text><text x="500.0" y="352.0" text-anchor="middle" class="sub">상장</text><rect x="385" y="452" width="230" height="86" rx="13" fill="#21304A" stroke="#82AAFF" stroke-width="1.7"/><text x="500.0" y="493.0" text-anchor="middle" class="node">D 법인</text><text x="500.0" y="524.0" text-anchor="middle" class="sub">비상장</text><path d="M148 280 V151 H385" fill="none" stroke="#82AAFF" stroke-width="2.8" marker-end="url(#arrow)"/><text x="248" y="137" text-anchor="start" class="sub">최대주주</text><path d="M220 320 H385" fill="none" stroke="#FFD54F" stroke-width="2.8" stroke-dasharray="8 6" marker-end="url(#gold)"/><text x="287" y="305" text-anchor="start" class="gold sub">이사</text><path d="M220 340 H274 V495 H385" fill="none" stroke="#FFD54F" stroke-width="2.8" stroke-dasharray="8 6" marker-end="url(#gold)"/><text x="311" y="480" text-anchor="start" class="gold sub">이사</text><path d="M500 194 V280" fill="none" stroke="#82AAFF" stroke-width="2.8" marker-end="url(#arrow)"/><text x="519" y="245" text-anchor="start" class="sub">자회사</text><path d="M500 366 V452" fill="none" stroke="#82AAFF" stroke-width="2.8" marker-end="url(#arrow)"/><text x="519" y="417" text-anchor="start" class="sub">자회사</text><rect x="804" y="103" width="248" height="101" rx="13" fill="#21304A" stroke="#82AAFF" stroke-width="1.7"/><text x="928" y="145" text-anchor="middle" class="node">D 법인</text><text x="928" y="179" text-anchor="middle" class="sub">E가 이사</text><rect x="804" y="277" width="248" height="101" rx="13" fill="#21304A" stroke="#82AAFF" stroke-width="1.7"/><text x="928" y="319" text-anchor="middle" class="node">B 법인</text><text x="928" y="353" text-anchor="middle" class="sub">상장회사</text><rect x="804" y="451" width="248" height="101" rx="13" fill="#21304A" stroke="#82AAFF" stroke-width="1.7"/><text x="928" y="493" text-anchor="middle" class="node">A 법인</text><text x="928" y="527" text-anchor="middle" class="sub">E가 최대주주</text><path d="M928 204 V277" fill="none" stroke="#82AAFF" stroke-width="3" marker-end="url(#arrow)"/><text x="946" y="246" class="sub">6억 원 대여</text><path d="M928 378 V451" fill="none" stroke="#82AAFF" stroke-width="3" marker-end="url(#arrow)"/><text x="946" y="420" class="sub">5억 원 대여</text></svg>