<svg xmlns="http://www.w3.org/2000/svg" viewBox="0 0 1446 1882" width="1446" height="1882" font-family="-apple-system, 'Apple SD Gothic Neo', 'Noto Sans KR', sans-serif">
<rect width="1446" height="1882" fill="#ffffff"/>
<rect x="40" y="40" width="1366" height="64" rx="12" fill="#eef3f8" stroke="#c3d0db" stroke-width="1.5"/>
<text x="61.6" y="83.5" font-size="32" font-weight="800" fill="#16202b">전문 AI 에이전트  =</text>
<text x="371.2" y="83.5" font-size="32" font-weight="800" fill="#16202b">① 환경</text>
<circle cx="515.4" cy="72.0" r="15" fill="#1d2b38"/>
<text x="515.4" y="79.0" text-anchor="middle" font-size="20" font-weight="700" fill="#ffffff">×</text>
<text x="552.4" y="83.5" font-size="32" font-weight="800" fill="#16202b">② 지식</text>
<circle cx="696.6" cy="72.0" r="15" fill="#1d2b38"/>
<text x="696.6" y="79.0" text-anchor="middle" font-size="20" font-weight="700" fill="#ffffff">×</text>
<text x="733.6" y="83.5" font-size="32" font-weight="800" fill="#16202b">③ 규칙</text>
<circle cx="877.8" cy="72.0" r="15" fill="#1d2b38"/>
<text x="877.8" y="79.0" text-anchor="middle" font-size="20" font-weight="700" fill="#ffffff">×</text>
<text x="914.8" y="83.5" font-size="32" font-weight="800" fill="#16202b">④ 실무</text>
<circle cx="1059.0" cy="72.0" r="15" fill="#1d2b38"/>
<text x="1059.0" y="79.0" text-anchor="middle" font-size="20" font-weight="700" fill="#ffffff">×</text>
<text x="1096.0" y="83.5" font-size="32" font-weight="800" fill="#16202b">⑤ 검증</text>
<circle cx="1240.2" cy="72.0" r="15" fill="#1d2b38"/>
<text x="1240.2" y="79.0" text-anchor="middle" font-size="20" font-weight="700" fill="#ffffff">×</text>
<text x="1277.2" y="83.5" font-size="32" font-weight="800" fill="#16202b">⑥ 학습</text>
<rect x="40" y="166" width="1366" height="260" rx="14" fill="#dde6ee" stroke="#a7b9c8" stroke-width="2"/>
<path d="M40,220 L40,180 q0,-14 14,-14 L1392,166 q14,0 14,14 L1406,220 Z" fill="#1d2b38"/>
<text x="60" y="203.0" font-size="26" font-weight="700" fill="#ffffff">①  환경</text>
<rect x="60" y="240.0" width="1326" height="166" rx="10" fill="#ffffff" stroke="#c3d0db" stroke-width="1.5"/>
<rect x="80" y="260.0" width="64.0" height="38" rx="8" fill="#d5e2ec" stroke="#6d8194" stroke-width="1.5"/>
<text x="112.0" y="286.0" text-anchor="middle" font-size="19" fill="#16202b">모델</text>
<text x="164.0" y="286.0" text-anchor="middle" font-size="21" fill="#55677a">+</text>
<rect x="184.0" y="260.0" width="108.7" height="38" rx="8" fill="#d5e2ec" stroke="#6d8194" stroke-width="1.5"/>
<text x="238.3" y="286.0" text-anchor="middle" font-size="19" fill="#16202b">실행 순환</text>
<text x="312.7" y="286.0" text-anchor="middle" font-size="21" fill="#55677a">+</text>
<rect x="332.7" y="260.0" width="149.5" height="38" rx="8" fill="#d5e2ec" stroke="#6d8194" stroke-width="1.5"/>
<text x="407.4" y="286.0" text-anchor="middle" font-size="19" fill="#16202b">저장·이어받기</text>
<text x="502.2" y="286.0" text-anchor="middle" font-size="21" fill="#55677a">+</text>
<rect x="522.2" y="260.0" width="127.7" height="38" rx="8" fill="#d5e2ec" stroke="#6d8194" stroke-width="1.5"/>
<text x="586.1" y="286.0" text-anchor="middle" font-size="19" fill="#16202b">나눠 맡기기</text>
<text x="669.9" y="286.0" text-anchor="middle" font-size="21" fill="#55677a">+</text>
<rect x="689.9" y="260.0" width="83.0" height="38" rx="8" fill="#d5e2ec" stroke="#6d8194" stroke-width="1.5"/>
<text x="731.4" y="286.0" text-anchor="middle" font-size="19" fill="#16202b">작업창</text>
<text x="792.9" y="286.0" text-anchor="middle" font-size="21" fill="#55677a">+</text>
<rect x="812.9" y="260.0" width="108.7" height="38" rx="8" fill="#d5e2ec" stroke="#6d8194" stroke-width="1.5"/>
<text x="867.3" y="286.0" text-anchor="middle" font-size="19" fill="#16202b">시작 신호</text>
<text x="941.6" y="286.0" text-anchor="middle" font-size="21" fill="#55677a">+</text>
<rect x="961.6" y="260.0" width="108.7" height="38" rx="8" fill="#d5e2ec" stroke="#6d8194" stroke-width="1.5"/>
<text x="1016.0" y="286.0" text-anchor="middle" font-size="19" fill="#16202b">자료 읽기</text>
<text x="1090.3" y="286.0" text-anchor="middle" font-size="21" fill="#55677a">+</text>
<rect x="1110.3" y="260.0" width="64.0" height="38" rx="8" fill="#d5e2ec" stroke="#6d8194" stroke-width="1.5"/>
<text x="1142.3" y="286.0" text-anchor="middle" font-size="19" fill="#16202b">도구</text>
<text x="1194.3" y="286.0" text-anchor="middle" font-size="21" fill="#55677a">+</text>
<rect x="1214.3" y="260.0" width="108.7" height="38" rx="8" fill="#d5e2ec" stroke="#6d8194" stroke-width="1.5"/>
<text x="1268.7" y="286.0" text-anchor="middle" font-size="19" fill="#16202b">시험 환경</text>
<rect x="80" y="310.0" width="379.9" height="76" rx="9" fill="#dde7ef"/>
<text x="94" y="329.0" font-size="17" font-weight="700" fill="#5b6c7c">+ 필요한 경우에만</text>
<rect x="94" y="336.0" width="127.7" height="38" rx="8" fill="#ffffff" stroke="#8fa0b0" stroke-width="1.5" stroke-dasharray="5 4"/>
<text x="157.8" y="362.0" text-anchor="middle" font-size="19" fill="#16202b">실시간 통로</text>
<text x="241.7" y="362.0" text-anchor="middle" font-size="21" fill="#55677a">+</text>
<rect x="261.7" y="336.0" width="175.2" height="38" rx="8" fill="#ffffff" stroke="#8fa0b0" stroke-width="1.5" stroke-dasharray="5 4"/>
<text x="349.3" y="362.0" text-anchor="middle" font-size="19" fill="#16202b">문서·그림 만들기</text>
<rect x="40" y="488" width="660" height="776" rx="14" fill="#dde6ee" stroke="#a7b9c8" stroke-width="2"/>
<path d="M40,542 L40,502 q0,-14 14,-14 L686,488 q14,0 14,14 L700,542 Z" fill="#1d2b38"/>
<text x="60" y="525.0" font-size="26" font-weight="700" fill="#ffffff">②  지식</text>
<rect x="60" y="562.0" width="620" height="290" rx="10" fill="#ffffff" stroke="#c3d0db" stroke-width="1.5"/>
<text x="80" y="602.0" font-size="21" font-weight="700" fill="#16202b">자료·검색</text>
<rect x="80" y="614.0" width="111.5" height="38" rx="8" fill="#d5e2ec" stroke="#6d8194" stroke-width="1.5"/>
<text x="135.8" y="640.0" text-anchor="middle" font-size="19" fill="#16202b">법규·기준</text>
<text x="211.5" y="640.0" text-anchor="middle" font-size="21" fill="#55677a">+</text>
<rect x="231.5" y="614.0" width="108.7" height="38" rx="8" fill="#d5e2ec" stroke="#6d8194" stroke-width="1.5"/>
<text x="285.9" y="640.0" text-anchor="middle" font-size="19" fill="#16202b">해석 자료</text>
<text x="360.2" y="640.0" text-anchor="middle" font-size="21" fill="#55677a">+</text>
<rect x="380.2" y="614.0" width="108.7" height="38" rx="8" fill="#d5e2ec" stroke="#6d8194" stroke-width="1.5"/>
<text x="434.6" y="640.0" text-anchor="middle" font-size="19" fill="#16202b">일반 자료</text>
<text x="91.0" y="686.0" text-anchor="middle" font-size="21" fill="#55677a">+</text>
<rect x="111" y="660.0" width="156.2" height="38" rx="8" fill="#d5e2ec" stroke="#6d8194" stroke-width="1.5"/>
<text x="189.1" y="686.0" text-anchor="middle" font-size="19" fill="#16202b">고객·회사 정보</text>
<text x="287.2" y="686.0" text-anchor="middle" font-size="21" fill="#55677a">+</text>
<rect x="307.2" y="660.0" width="159.0" height="38" rx="8" fill="#d5e2ec" stroke="#6d8194" stroke-width="1.5"/>
<text x="386.7" y="686.0" text-anchor="middle" font-size="19" fill="#16202b">출처·시점·판본</text>
<text x="91.0" y="732.0" text-anchor="middle" font-size="21" fill="#55677a">+</text>
<rect x="111" y="706.0" width="64.0" height="38" rx="8" fill="#d5e2ec" stroke="#6d8194" stroke-width="1.5"/>
<text x="143.0" y="732.0" text-anchor="middle" font-size="19" fill="#16202b">검색</text>
<text x="195.0" y="732.0" text-anchor="middle" font-size="21" fill="#55677a">+</text>
<rect x="215.0" y="706.0" width="108.7" height="38" rx="8" fill="#d5e2ec" stroke="#6d8194" stroke-width="1.5"/>
<text x="269.4" y="732.0" text-anchor="middle" font-size="19" fill="#16202b">자동 갱신</text>
<rect x="80" y="756.0" width="360.9" height="76" rx="9" fill="#dde7ef"/>
<text x="94" y="775.0" font-size="17" font-weight="700" fill="#5b6c7c">+ 필요한 경우에만</text>
<rect x="94" y="782.0" width="175.2" height="38" rx="8" fill="#ffffff" stroke="#8fa0b0" stroke-width="1.5" stroke-dasharray="5 4"/>
<text x="181.6" y="808.0" text-anchor="middle" font-size="19" fill="#16202b">플랫폼·기관 규정</text>
<text x="289.2" y="808.0" text-anchor="middle" font-size="21" fill="#55677a">+</text>
<rect x="309.2" y="782.0" width="108.7" height="38" rx="8" fill="#ffffff" stroke="#8fa0b0" stroke-width="1.5" stroke-dasharray="5 4"/>
<text x="363.6" y="808.0" text-anchor="middle" font-size="19" fill="#16202b">현황 자료</text>
<path d="M370.0,852.0 L370.0,894.0" stroke="#c3d0db" stroke-width="2"/>
<circle cx="370.0" cy="873.0" r="15" fill="#ffffff" stroke="#c3d0db" stroke-width="2"/>
<text x="370.0" y="879.6" text-anchor="middle" font-size="19" font-weight="700" fill="#55677a">+</text>
<rect x="60" y="894.0" width="620" height="198" rx="10" fill="#ffffff" stroke="#c3d0db" stroke-width="1.5"/>
<text x="80" y="934.0" font-size="21" font-weight="700" fill="#16202b">지식·경험</text>
<rect x="80" y="946.0" width="108.7" height="38" rx="8" fill="#d5e2ec" stroke="#6d8194" stroke-width="1.5"/>
<text x="134.3" y="972.0" text-anchor="middle" font-size="19" fill="#16202b">업무 지식</text>
<text x="208.7" y="972.0" text-anchor="middle" font-size="21" fill="#55677a">+</text>
<rect x="228.7" y="946.0" width="178.0" height="38" rx="8" fill="#d5e2ec" stroke="#6d8194" stroke-width="1.5"/>
<text x="317.7" y="972.0" text-anchor="middle" font-size="19" fill="#16202b">감각·사례·암묵지</text>
<rect x="80" y="996.0" width="167.5" height="76" rx="9" fill="#dde7ef"/>
<text x="94" y="1015.0" font-size="17" font-weight="700" fill="#5b6c7c">+ 필요한 경우에만</text>
<rect x="94" y="1022.0" width="130.5" height="38" rx="8" fill="#ffffff" stroke="#8fa0b0" stroke-width="1.5" stroke-dasharray="5 4"/>
<text x="159.2" y="1048.0" text-anchor="middle" font-size="19" fill="#16202b">정체성·작풍</text>
<path d="M370.0,1092.0 L370.0,1134.0" stroke="#c3d0db" stroke-width="2"/>
<circle cx="370.0" cy="1113.0" r="15" fill="#ffffff" stroke="#c3d0db" stroke-width="2"/>
<text x="370.0" y="1119.7" text-anchor="middle" font-size="19" font-weight="700" fill="#55677a">+</text>
<rect x="60" y="1134.0" width="620" height="110" rx="10" fill="#ffffff" stroke="#c3d0db" stroke-width="1.5"/>
<text x="80" y="1174.0" font-size="21" font-weight="700" fill="#16202b">기억·상태</text>
<rect x="80" y="1186.0" width="108.7" height="38" rx="8" fill="#d5e2ec" stroke="#6d8194" stroke-width="1.5"/>
<text x="134.3" y="1212.0" text-anchor="middle" font-size="19" fill="#16202b">장기 기억</text>
<text x="208.7" y="1212.0" text-anchor="middle" font-size="21" fill="#55677a">+</text>
<rect x="228.7" y="1186.0" width="108.7" height="38" rx="8" fill="#d5e2ec" stroke="#6d8194" stroke-width="1.5"/>
<text x="283.1" y="1212.0" text-anchor="middle" font-size="19" fill="#16202b">작업 기억</text>
<rect x="746" y="488" width="660" height="776" rx="14" fill="#dde6ee" stroke="#a7b9c8" stroke-width="2"/>
<path d="M746,542 L746,502 q0,-14 14,-14 L1392,488 q14,0 14,14 L1406,542 Z" fill="#1d2b38"/>
<text x="766" y="525.0" font-size="26" font-weight="700" fill="#ffffff">③  규칙</text>
<rect x="766" y="584.0" width="620" height="352" rx="10" fill="#ffffff" stroke="#c3d0db" stroke-width="1.5"/>
<text x="786" y="624.0" font-size="21" font-weight="700" fill="#16202b">규칙·권한</text>
<path d="M816,655.0 V700.0 H891 V745.0 H966 V790.0 H1041 V835.0 H1116" fill="none" stroke="#55677a" stroke-width="2" stroke-dasharray="4 4" stroke-linejoin="round"/>
<path d="M810,663.0 L816,653.0 L822,663.0" fill="none" stroke="#55677a" stroke-width="2" stroke-linejoin="round" stroke-linecap="round"/>
<rect x="832" y="636.0" width="108.7" height="38" rx="8" fill="#d5e2ec" stroke="#6d8194" stroke-width="1.5"/>
<text x="886.4" y="662.0" text-anchor="middle" font-size="19" fill="#16202b">절대 원칙</text>
<rect x="907" y="681.0" width="108.7" height="38" rx="8" fill="#d5e2ec" stroke="#6d8194" stroke-width="1.5"/>
<text x="961.4" y="707.0" text-anchor="middle" font-size="19" fill="#16202b">직업 규칙</text>
<rect x="982" y="726.0" width="175.2" height="38" rx="8" fill="#ffffff" stroke="#8fa0b0" stroke-width="1.5" stroke-dasharray="5 4"/>
<text x="1069.6" y="752.0" text-anchor="middle" font-size="19" fill="#16202b">계약·플랫폼 규칙</text>
<rect x="1057" y="771.0" width="108.7" height="38" rx="8" fill="#ffffff" stroke="#8fa0b0" stroke-width="1.5" stroke-dasharray="5 4"/>
<text x="1111.3" y="797.0" text-anchor="middle" font-size="19" fill="#16202b">회사 규칙</text>
<rect x="1132" y="816.0" width="108.7" height="38" rx="8" fill="#d5e2ec" stroke="#6d8194" stroke-width="1.5"/>
<text x="1186.3" y="842.0" text-anchor="middle" font-size="19" fill="#16202b">개인 취향</text>
<text x="960.7" y="661.0" font-size="17" font-weight="700" fill="#55677a">위 규칙이 아래를 이긴다</text>
<text x="792" y="871.0" font-size="21" fill="#55677a">+</text>
<rect x="786" y="878.0" width="159.0" height="38" rx="8" fill="#d5e2ec" stroke="#6d8194" stroke-width="1.5"/>
<text x="865.5" y="904.0" text-anchor="middle" font-size="19" fill="#16202b">권한·명의·위임</text>
<text x="965.0" y="904.0" text-anchor="middle" font-size="21" fill="#55677a">+</text>
<rect x="985.0" y="878.0" width="102.0" height="38" rx="8" fill="#d5e2ec" stroke="#6d8194" stroke-width="1.5"/>
<text x="1036.0" y="904.0" text-anchor="middle" font-size="19" fill="#16202b">안전장치</text>
<text x="1107.0" y="904.0" text-anchor="middle" font-size="21" fill="#55677a">+</text>
<rect x="1127.0" y="878.0" width="156.2" height="38" rx="8" fill="#d5e2ec" stroke="#6d8194" stroke-width="1.5"/>
<text x="1205.1" y="904.0" text-anchor="middle" font-size="19" fill="#16202b">책임·손실 한도</text>
<path d="M1076.0,936.0 L1076.0,978.0" stroke="#c3d0db" stroke-width="2"/>
<circle cx="1076.0" cy="957.0" r="15" fill="#ffffff" stroke="#c3d0db" stroke-width="2"/>
<text x="1076.0" y="963.6" text-anchor="middle" font-size="19" font-weight="700" fill="#55677a">+</text>
<rect x="766" y="978.0" width="620" height="244" rx="10" fill="#ffffff" stroke="#c3d0db" stroke-width="1.5"/>
<text x="786" y="1018.0" font-size="21" font-weight="700" fill="#16202b">행동 체계</text>
<rect x="786" y="1030.0" width="108.7" height="38" rx="8" fill="#d5e2ec" stroke="#6d8194" stroke-width="1.5"/>
<text x="840.4" y="1056.0" text-anchor="middle" font-size="19" fill="#16202b">판단 규칙</text>
<text x="914.7" y="1056.0" text-anchor="middle" font-size="21" fill="#55677a">+</text>
<rect x="934.7" y="1030.0" width="175.2" height="38" rx="8" fill="#d5e2ec" stroke="#6d8194" stroke-width="1.5"/>
<text x="1022.3" y="1056.0" text-anchor="middle" font-size="19" fill="#16202b">업무 절차·노하우</text>
<text x="1129.9" y="1056.0" text-anchor="middle" font-size="21" fill="#55677a">+</text>
<rect x="1149.9" y="1030.0" width="108.7" height="38" rx="8" fill="#d5e2ec" stroke="#6d8194" stroke-width="1.5"/>
<text x="1204.2" y="1056.0" text-anchor="middle" font-size="19" fill="#16202b">완료 조건</text>
<text x="797.0" y="1102.0" text-anchor="middle" font-size="21" fill="#55677a">+</text>
<rect x="817" y="1076.0" width="146.7" height="38" rx="8" fill="#d5e2ec" stroke="#6d8194" stroke-width="1.5"/>
<text x="890.4" y="1102.0" text-anchor="middle" font-size="19" fill="#16202b">먼저 감지하기</text>
<text x="983.7" y="1102.0" text-anchor="middle" font-size="21" fill="#55677a">+</text>
<rect x="1003.7" y="1076.0" width="165.7" height="38" rx="8" fill="#d5e2ec" stroke="#6d8194" stroke-width="1.5"/>
<text x="1086.5" y="1102.0" text-anchor="middle" font-size="19" fill="#16202b">사람에게 넘기기</text>
<text x="1189.4" y="1102.0" text-anchor="middle" font-size="21" fill="#55677a">+</text>
<rect x="1209.4" y="1076.0" width="130.5" height="38" rx="8" fill="#d5e2ec" stroke="#6d8194" stroke-width="1.5"/>
<text x="1274.7" y="1102.0" text-anchor="middle" font-size="19" fill="#16202b">보고·결과물</text>
<rect x="786" y="1126.0" width="145.7" height="76" rx="9" fill="#dde7ef"/>
<text x="800" y="1145.0" font-size="17" font-weight="700" fill="#5b6c7c">+ 필요한 경우에만</text>
<rect x="800" y="1152.0" width="108.7" height="38" rx="8" fill="#ffffff" stroke="#8fa0b0" stroke-width="1.5" stroke-dasharray="5 4"/>
<text x="854.4" y="1178.0" text-anchor="middle" font-size="19" fill="#16202b">상대 응대</text>
<rect x="40" y="1326" width="1366" height="204" rx="14" fill="#dde6ee" stroke="#a7b9c8" stroke-width="2"/>
<path d="M40,1380 L40,1340 q0,-14 14,-14 L1392,1326 q14,0 14,14 L1406,1380 Z" fill="#1d2b38"/>
<text x="60" y="1363.0" font-size="26" font-weight="700" fill="#ffffff">④  실무</text>
<rect x="60" y="1400.0" width="1326" height="110" rx="10" fill="#ffffff" stroke="#c3d0db" stroke-width="1.5"/>
<text x="80" y="1440.0" font-size="21" font-weight="700" fill="#16202b">업무 처리 흐름</text>
<path d="M80,1452.0 L236.3,1452.0 L247.3,1471.0 L236.3,1490.0 L80,1490.0 Z" fill="#d5e2ec" stroke="#6d8194" stroke-width="1.5" stroke-linejoin="round"/>
<text x="169.2" y="1478.0" text-anchor="middle" font-size="19" fill="#16202b">감지·접수</text>
<path d="M236.3,1452.0 L389.8,1452.0 L400.8,1471.0 L389.8,1490.0 L236.3,1490.0 L247.3,1471.0 Z" fill="#d5e2ec" stroke="#6d8194" stroke-width="1.5" stroke-linejoin="round"/>
<text x="324.1" y="1478.0" text-anchor="middle" font-size="19" fill="#16202b">의도 파악</text>
<path d="M389.8,1452.0 L543.4,1452.0 L554.4,1471.0 L543.4,1490.0 L389.8,1490.0 L400.8,1471.0 Z" fill="#d5e2ec" stroke="#6d8194" stroke-width="1.5" stroke-linejoin="round"/>
<text x="477.6" y="1478.0" text-anchor="middle" font-size="19" fill="#16202b">문제 정의</text>
<path d="M543.4,1452.0 L696.9,1452.0 L707.9,1471.0 L696.9,1490.0 L543.4,1490.0 L554.4,1471.0 Z" fill="#d5e2ec" stroke="#6d8194" stroke-width="1.5" stroke-linejoin="round"/>
<text x="631.1" y="1478.0" text-anchor="middle" font-size="19" fill="#16202b">자료 확인</text>
<path d="M696.9,1452.0 L853.2,1452.0 L864.2,1471.0 L853.2,1490.0 L696.9,1490.0 L707.9,1471.0 Z" fill="#d5e2ec" stroke="#6d8194" stroke-width="1.5" stroke-linejoin="round"/>
<text x="786.1" y="1478.0" text-anchor="middle" font-size="19" fill="#16202b">판단·계획</text>
<path d="M853.2,1452.0 L962.0,1452.0 L973.0,1471.0 L962.0,1490.0 L853.2,1490.0 L864.2,1471.0 Z" fill="#d5e2ec" stroke="#6d8194" stroke-width="1.5" stroke-linejoin="round"/>
<text x="918.6" y="1478.0" text-anchor="middle" font-size="19" fill="#16202b">처리</text>
<path d="M962.0,1452.0 L1070.9,1452.0 L1081.9,1471.0 L1070.9,1490.0 L962.0,1490.0 L973.0,1471.0 Z" fill="#d5e2ec" stroke="#6d8194" stroke-width="1.5" stroke-linejoin="round"/>
<text x="1027.4" y="1478.0" text-anchor="middle" font-size="19" fill="#16202b">검증</text>
<path d="M1070.9,1452.0 L1227.2,1452.0 L1238.2,1471.0 L1227.2,1490.0 L1070.9,1490.0 L1081.9,1471.0 Z" fill="#d5e2ec" stroke="#6d8194" stroke-width="1.5" stroke-linejoin="round"/>
<text x="1160.0" y="1478.0" text-anchor="middle" font-size="19" fill="#16202b">완료·보고</text>
<path d="M1227.2,1452.0 L1366.0,1452.0 L1366.0,1490.0 L1227.2,1490.0 L1238.2,1471.0 Z" fill="#d5e2ec" stroke="#6d8194" stroke-width="1.5" stroke-linejoin="round"/>
<text x="1302.1" y="1478.0" text-anchor="middle" font-size="19" fill="#16202b">남기기</text>
<rect x="40" y="1592" width="660" height="250" rx="14" fill="#dde6ee" stroke="#a7b9c8" stroke-width="2"/>
<path d="M40,1646 L40,1606 q0,-14 14,-14 L686,1592 q14,0 14,14 L700,1646 Z" fill="#1d2b38"/>
<text x="60" y="1629.0" font-size="26" font-weight="700" fill="#ffffff">⑤  검증</text>
<rect x="60" y="1666.0" width="620" height="156" rx="10" fill="#ffffff" stroke="#c3d0db" stroke-width="1.5"/>
<text x="80" y="1706.0" font-size="21" font-weight="700" fill="#16202b">검증·평가</text>
<rect x="80" y="1718.0" width="156.2" height="38" rx="8" fill="#d5e2ec" stroke="#6d8194" stroke-width="1.5"/>
<text x="158.1" y="1744.0" text-anchor="middle" font-size="19" fill="#16202b">결과 검증·수정</text>
<text x="256.2" y="1744.0" text-anchor="middle" font-size="21" fill="#55677a">+</text>
<rect x="276.2" y="1718.0" width="156.2" height="38" rx="8" fill="#d5e2ec" stroke="#6d8194" stroke-width="1.5"/>
<text x="354.3" y="1744.0" text-anchor="middle" font-size="19" fill="#16202b">반증·교차 검증</text>
<text x="452.4" y="1744.0" text-anchor="middle" font-size="21" fill="#55677a">+</text>
<rect x="472.4" y="1718.0" width="153.3" height="38" rx="8" fill="#d5e2ec" stroke="#6d8194" stroke-width="1.5"/>
<text x="549.0" y="1744.0" text-anchor="middle" font-size="19" fill="#16202b">위험 누락 검사</text>
<text x="91.0" y="1790.0" text-anchor="middle" font-size="21" fill="#55677a">+</text>
<rect x="111" y="1764.0" width="108.7" height="38" rx="8" fill="#d5e2ec" stroke="#6d8194" stroke-width="1.5"/>
<text x="165.3" y="1790.0" text-anchor="middle" font-size="19" fill="#16202b">과정 평가</text>
<text x="239.7" y="1790.0" text-anchor="middle" font-size="21" fill="#55677a">+</text>
<rect x="259.7" y="1764.0" width="127.7" height="38" rx="8" fill="#d5e2ec" stroke="#6d8194" stroke-width="1.5"/>
<text x="323.6" y="1790.0" text-anchor="middle" font-size="19" fill="#16202b">결과물 평가</text>
<text x="407.4" y="1790.0" text-anchor="middle" font-size="21" fill="#55677a">+</text>
<rect x="427.4" y="1764.0" width="156.2" height="38" rx="8" fill="#d5e2ec" stroke="#6d8194" stroke-width="1.5"/>
<text x="505.5" y="1790.0" text-anchor="middle" font-size="19" fill="#16202b">근거 추적·재현</text>
<rect x="746" y="1592" width="660" height="250" rx="14" fill="#dde6ee" stroke="#a7b9c8" stroke-width="2"/>
<path d="M746,1646 L746,1606 q0,-14 14,-14 L1392,1592 q14,0 14,14 L1406,1646 Z" fill="#1d2b38"/>
<text x="766" y="1629.0" font-size="26" font-weight="700" fill="#ffffff">⑥  학습</text>
<rect x="766" y="1666.0" width="620" height="156" rx="10" fill="#ffffff" stroke="#c3d0db" stroke-width="1.5"/>
<text x="786" y="1706.0" font-size="21" font-weight="700" fill="#16202b">학습·개선</text>
<rect x="786" y="1718.0" width="153.3" height="38" rx="8" fill="#d5e2ec" stroke="#6d8194" stroke-width="1.5"/>
<text x="862.6" y="1744.0" text-anchor="middle" font-size="19" fill="#16202b">실패 원인 분석</text>
<text x="959.3" y="1744.0" text-anchor="middle" font-size="21" fill="#55677a">+</text>
<rect x="979.3" y="1718.0" width="108.7" height="38" rx="8" fill="#d5e2ec" stroke="#6d8194" stroke-width="1.5"/>
<text x="1033.6" y="1744.0" text-anchor="middle" font-size="19" fill="#16202b">고정 시험</text>
<text x="797.0" y="1790.0" text-anchor="middle" font-size="21" fill="#55677a">+</text>
<rect x="817" y="1764.0" width="108.7" height="38" rx="8" fill="#d5e2ec" stroke="#6d8194" stroke-width="1.5"/>
<text x="871.4" y="1790.0" text-anchor="middle" font-size="19" fill="#16202b">자동 학습</text>
<text x="945.7" y="1790.0" text-anchor="middle" font-size="21" fill="#55677a">+</text>
<rect x="965.7" y="1764.0" width="108.7" height="38" rx="8" fill="#d5e2ec" stroke="#6d8194" stroke-width="1.5"/>
<text x="1020.1" y="1790.0" text-anchor="middle" font-size="19" fill="#16202b">성과 추적</text>
<path d="M700,876.0 L746,876.0" stroke="#a7b9c8" stroke-width="2"/>
<circle cx="723.0" cy="876.0" r="23" fill="#1d2b38" stroke="#1d2b38" stroke-width="2"/>
<text x="723.0" y="885.1" text-anchor="middle" font-size="26" font-weight="700" fill="#ffffff">×</text>
<path d="M723.0,426 L723.0,457.0 M370.0,488 L370.0,472.5 L723.0,472.5 L723.0,457.0 M1076.0,488 L1076.0,472.5 L723.0,472.5 L723.0,457.0" fill="none" stroke="#a7b9c8" stroke-width="2" stroke-linejoin="round"/>
<circle cx="723.0" cy="457.0" r="23" fill="#1d2b38" stroke="#1d2b38" stroke-width="2"/>
<text x="723.0" y="466.1" text-anchor="middle" font-size="26" font-weight="700" fill="#ffffff">×</text>
<path d="M370.0,1264 L370.0,1279.5 L723.0,1279.5 L723.0,1295.0 M1076.0,1264 L1076.0,1279.5 L723.0,1279.5 L723.0,1295.0 M723.0,1326 L723.0,1295.0" fill="none" stroke="#a7b9c8" stroke-width="2" stroke-linejoin="round"/>
<circle cx="723.0" cy="1295.0" r="23" fill="#1d2b38" stroke="#1d2b38" stroke-width="2"/>
<text x="723.0" y="1304.1" text-anchor="middle" font-size="26" font-weight="700" fill="#ffffff">×</text>
<path d="M700,1717.0 L746,1717.0" stroke="#a7b9c8" stroke-width="2"/>
<circle cx="723.0" cy="1717.0" r="23" fill="#1d2b38" stroke="#1d2b38" stroke-width="2"/>
<text x="723.0" y="1726.1" text-anchor="middle" font-size="26" font-weight="700" fill="#ffffff">×</text>
<path d="M723.0,1530 L723.0,1561.0 M370.0,1592 L370.0,1576.5 L723.0,1576.5 L723.0,1561.0 M1076.0,1592 L1076.0,1576.5 L723.0,1576.5 L723.0,1561.0" fill="none" stroke="#a7b9c8" stroke-width="2" stroke-linejoin="round"/>
<circle cx="723.0" cy="1561.0" r="23" fill="#1d2b38" stroke="#1d2b38" stroke-width="2"/>
<text x="723.0" y="1570.1" text-anchor="middle" font-size="26" font-weight="700" fill="#ffffff">×</text>
</svg>